M48
; DRILL file {KiCad 8.0.4} date 2024-12-14T18:04:28+0530
; FORMAT={-:-/ absolute / inch / decimal}
; #@! TF.CreationDate,2024-12-14T18:04:28+05:30
; #@! TF.GenerationSoftware,Kicad,Pcbnew,8.0.4
; #@! TF.FileFunction,Plated,1,2,PTH
FMAT,2
INCH
; #@! TA.AperFunction,Plated,PTH,ComponentDrill
T1C0.0236
; #@! TA.AperFunction,Plated,PTH,ComponentDrill
T2C0.0315
; #@! TA.AperFunction,Plated,PTH,ComponentDrill
T3C0.0394
; #@! TA.AperFunction,Plated,PTH,ComponentDrill
T4C0.0512
%
G90
G05
T1
X4.1929Y-3.622
X4.252Y-3.622
X6.4764Y-3.5827
X6.5354Y-3.5827
T2
X4.4567Y-3.6291
X4.4567Y-3.9291
X4.5567Y-3.6291
X4.5567Y-3.9291
X4.6567Y-3.6291
X4.6567Y-3.9291
X4.7567Y-3.6291
X4.7567Y-3.9291
X5.0618Y-3.5433
X5.0618Y-4.4433
X5.1406Y-3.5433
X5.1406Y-4.4433
X5.2193Y-3.5433
X5.2193Y-4.4433
X5.298Y-3.5433
X5.298Y-4.4433
X5.3768Y-3.5433
X5.3768Y-4.4433
X5.4555Y-3.5433
X5.4555Y-4.4433
X5.5118Y-3.7402
X5.5343Y-3.5433
X5.5343Y-4.4433
X5.5906Y-3.7402
X5.613Y-3.5433
X5.613Y-4.4433
X5.6693Y-3.7402
X5.6917Y-3.5433
X5.6917Y-4.4433
X5.748Y-3.7402
X5.7705Y-3.5433
X5.7705Y-4.4433
X5.8492Y-3.5433
X5.8492Y-4.4433
X5.928Y-3.5433
X5.928Y-4.4433
X6.0067Y-3.5433
X6.0067Y-4.4433
X6.0854Y-3.5433
X6.0854Y-4.4433
X6.1642Y-3.5433
X6.1642Y-4.4433
T3
X6.8189Y-3.7795
X7.1181Y-3.7795
T4
X4.1929Y-4.6555
X4.4488Y-4.6555
X4.7146Y-4.6555
X4.9705Y-4.6555
X6.6535Y-4.2815
X6.6535Y-4.6949
X6.9094Y-4.2815
X6.9094Y-4.6949
M30
