%TF.GenerationSoftware,KiCad,Pcbnew,8.0.4*%
%TF.CreationDate,2024-12-14T18:04:41+05:30*%
%TF.ProjectId,snakeGameConsole,736e616b-6547-4616-9d65-436f6e736f6c,rev?*%
%TF.SameCoordinates,Original*%
%TF.FileFunction,Soldermask,Top*%
%TF.FilePolarity,Negative*%
%FSLAX46Y46*%
G04 Gerber Fmt 4.6, Leading zero omitted, Abs format (unit mm)*
G04 Created by KiCad (PCBNEW 8.0.4) date 2024-12-14 18:04:41*
%MOMM*%
%LPD*%
G01*
G04 APERTURE LIST*
%ADD10R,2.000000X2.000000*%
%ADD11C,2.000000*%
%ADD12R,2.250000X2.250000*%
%ADD13C,2.250000*%
%ADD14R,1.200000X1.200000*%
%ADD15C,1.200000*%
%ADD16R,1.600000X1.600000*%
%ADD17O,1.600000X1.600000*%
%ADD18R,1.350000X1.350000*%
%ADD19O,1.350000X1.350000*%
G04 APERTURE END LIST*
D10*
%TO.C,LS1*%
X173200000Y-96000000D03*
D11*
X180800000Y-96000000D03*
%TD*%
D12*
%TO.C,SW3*%
X106500000Y-118250000D03*
D13*
X113000000Y-118250000D03*
%TD*%
D14*
%TO.C,C1*%
X106500000Y-92000000D03*
D15*
X108000000Y-92000000D03*
%TD*%
D16*
%TO.C,U1*%
X113200000Y-99800000D03*
D17*
X115740000Y-99800000D03*
X118280000Y-99800000D03*
X120820000Y-99800000D03*
X120820000Y-92180000D03*
X118280000Y-92180000D03*
X115740000Y-92180000D03*
X113200000Y-92180000D03*
%TD*%
D12*
%TO.C,SW1*%
X169000000Y-108750000D03*
D13*
X175500000Y-108750000D03*
%TD*%
D12*
%TO.C,SW2*%
X119750000Y-118250000D03*
D13*
X126250000Y-118250000D03*
%TD*%
D12*
%TO.C,SW4*%
X169000000Y-119250000D03*
D13*
X175500000Y-119250000D03*
%TD*%
D14*
%TO.C,C2*%
X164500000Y-91000000D03*
D15*
X166000000Y-91000000D03*
%TD*%
D18*
%TO.C,J3*%
X140000000Y-95000000D03*
D19*
X142000000Y-95000000D03*
X144000000Y-95000000D03*
X146000000Y-95000000D03*
%TD*%
D18*
%TO.C,J6*%
X128570000Y-90000000D03*
D19*
X130570000Y-90000000D03*
X132570000Y-90000000D03*
X134570000Y-90000000D03*
X136570000Y-90000000D03*
X138570000Y-90000000D03*
X140570000Y-90000000D03*
X142570000Y-90000000D03*
X144570000Y-90000000D03*
X146570000Y-90000000D03*
X148570000Y-90000000D03*
X150570000Y-90000000D03*
X152570000Y-90000000D03*
X154570000Y-90000000D03*
X156570000Y-90000000D03*
%TD*%
D18*
%TO.C,J1*%
X128570000Y-112860000D03*
D19*
X130570000Y-112860000D03*
X132570000Y-112860000D03*
X134570000Y-112860000D03*
X136570000Y-112860000D03*
X138570000Y-112860000D03*
X140570000Y-112860000D03*
X142570000Y-112860000D03*
X144570000Y-112860000D03*
X146570000Y-112860000D03*
X148570000Y-112860000D03*
X150570000Y-112860000D03*
X152570000Y-112860000D03*
X154570000Y-112860000D03*
X156570000Y-112860000D03*
%TD*%
M02*
